# xmcd
#
# Track frame offsets:
#	150
#	15231
#	28404
#	42728
#	64039
#	70269
#	87616
#	114076
#	131498
#	145093
#	157686
#	197497
#	215084
#	242072
#	259658
#
# Disc length: 3531 seconds
#
# Revision: 0
# Processed by: cddbd v1.5.2PL0 Copyright (c) Steve Scherf et al.
# Submitted via: audiograbber 1.83.01
#
DISCID=d00dc90f
DTITLE=Sawyer - Free And Easy
DYEAR=2008
DGENRE=Country
TTITLE0=Free And Easy (Down The Road I Go)
TTITLE1=Breakaway
TTITLE2=Face On The Cutting Room Floor
TTITLE3=Islands In The Stream
TTITLE4=My Old Friend - Lyrics
TTITLE5=My Old Friend
TTITLE6=Travelin' Soldier
TTITLE7=Awful, Beautiful Life
TTITLE8=Ruby
TTITLE9=Travelin' Band
TTITLE10=5800 Feet - The Fideris - Echo
TTITLE11=Those Words We Said
TTITLE12=Wild West Show
TTITLE13=Wheels - Bonus Track
TTITLE14=On The Road ...Again
EXTD=
EXTT0=
EXTT1=
EXTT2=
EXTT3=
EXTT4=
EXTT5=
EXTT6=
EXTT7=
EXTT8=
EXTT9=
EXTT10=
EXTT11=
EXTT12=
EXTT13=
EXTT14=
PLAYORDER=
